<svg width="960" height="686" viewBox="0 0 960 686" fill="none" xmlns="http://www.w3.org/2000/svg">
<g clip-path="url(#clip0)">
<path d="M746.704 311.07C744.91 306.457 747.473 304.151 748.498 300.051C749.523 295.951 746.191 283.138 746.191 283.138C746.191 283.138 735.428 238.805 732.097 230.092C730.687 226.405 727.626 223.869 724.562 222.165C724.355 221.034 724.055 220.305 723.641 220.098C720.672 218.613 713.278 215.388 708.35 214.497C707.428 212.913 706.336 211.435 705.091 210.09C705.956 208.429 706.357 206.566 706.252 204.696C705.938 199.861 702.277 195.529 702.753 190.707C703.114 187.051 705.788 184.047 706.819 180.52C707.252 178.937 707.354 177.281 707.12 175.656C706.886 174.03 706.32 172.471 705.458 171.074C706.216 171.88 706.974 172.686 707.732 173.493C708.763 171.947 709.259 170.107 709.145 168.252C709.03 166.398 708.311 164.632 707.098 163.225C704.698 160.574 700.684 159.579 698.822 156.526C696.908 153.388 697.935 149.125 696.126 145.926C691.693 138.089 680.344 143.644 673.547 140.909C670.754 139.785 668.631 138.548 665.488 138.637C662.816 138.79 660.174 139.284 657.626 140.105C653.972 141.163 650.792 143.442 648.617 146.563C648.831 146.319 649.067 146.094 649.32 145.891C650.968 144.6 653.856 144.707 654.726 146.611C654.934 147.089 655.021 147.611 654.98 148.131C654.837 150.425 652.832 152.139 650.841 153.287C648.849 154.435 646.608 155.396 645.309 157.292C643.163 160.421 644.425 164.621 644.426 168.415C644.408 170.826 643.85 173.202 642.793 175.369C641.735 177.536 640.205 179.438 638.315 180.935L645.546 177.979C642.093 184.022 639.827 190.669 638.868 197.562L648.645 189.485C645.024 195.248 642.823 201.789 642.224 208.569L650.071 200.528C650.429 201.156 650.608 201.869 650.589 202.592L649.771 205.748C649.482 206.375 649.161 206.986 648.811 207.58C647.548 209.749 646.242 212.418 647.423 214.632L647.429 214.629C646.186 218.812 644.31 222.997 640.138 225.031C644.766 225.515 649.596 223.201 651.685 219.519C652.026 220.181 652.438 220.805 652.913 221.379C653.047 221.547 653.18 221.714 653.313 221.881L652.16 222.65L649.069 224.711C649.069 224.711 628.825 228.811 630.106 236.498C630.159 236.815 630.222 237.192 630.293 237.616L624.468 247.518L616.012 276.219C616.012 276.219 611.655 285.444 612.424 289.288C613.193 293.132 612.424 294.669 612.424 301.588C612.424 308.507 609.093 311.326 612.424 316.964C615.755 322.601 625.749 339.002 625.749 339.002L627.945 340.648C627.838 341.637 627.875 342.637 628.056 343.615C630.106 353.865 649.325 452.012 649.325 452.012C649.325 452.012 639.587 529.659 659.319 534.528C661.794 535.138 664.224 535.693 666.585 536.186L669.57 555.797L667.776 580.654C667.776 580.654 654.194 611.405 679.051 613.199C703.908 614.993 692.633 586.548 692.633 586.548C693.945 584.12 694.482 581.347 694.171 578.604C693.917 576.323 691.783 564.452 689.691 553.035C699.124 551.904 697.359 541.892 696.102 537.49C696.646 537.173 697.054 536.665 697.246 536.065C697.53 535.043 696.868 531.022 695.669 525.387C694.692 519.785 693.022 510.716 691.883 504.572L698.014 505.57L723.897 353.865C723.897 353.865 724.067 351.45 723.989 347.918C727.528 346.088 731.177 344.479 734.916 343.102C743.372 339.771 746.704 327.47 749.523 322.345C752.341 317.22 748.498 315.683 746.704 311.07ZM654.808 214.479C655.646 213.901 656.627 213.569 657.643 213.517C657.424 214.709 655.374 215.057 653.655 215.682C653.971 215.22 654.36 214.813 654.808 214.479V214.479ZM641.894 290.825C643.97 294.236 640.211 303.479 636.824 310.814C634.882 309.141 632.857 309.669 635.231 304.92C636.85 301.91 637.811 298.591 638.05 295.182C638.05 294.596 638.35 290.291 640.875 288.502C641.141 289.307 641.482 290.085 641.894 290.825V290.825ZM634.117 320.264C635.291 319.786 637.071 319.052 639.473 318.235C638.322 319.745 637.008 321.545 635.686 323.51C635.187 323.132 634.784 322.64 634.511 322.076C634.239 321.512 634.103 320.891 634.117 320.264V320.264ZM717.234 323.627C715.676 321.971 714.417 320.491 713.381 319.166C715.314 319.675 717.281 320.222 719.284 320.808C720.282 320.957 721.3 320.889 722.27 320.609C722.359 322.38 722.359 324.908 722.359 324.908L719.552 326.851C718.912 325.687 718.134 324.604 717.234 323.627V323.627ZM725.186 314.739C725.157 314.765 725.124 314.795 725.094 314.823C724.956 313.809 724.727 312.811 724.409 311.839C722.73 306.542 721.832 297.144 721.355 289.125L726.203 305.432C726.203 305.432 726.459 313.633 725.186 314.739V314.739Z" fill="#D0CDE1"/>
<path d="M625.644 247.383C625.644 247.383 599.354 202.197 598.532 197.267C597.71 192.338 584.565 183.3 584.565 183.3C580.074 178.809 572.705 177.388 564.95 177.462C567.87 175.046 557.443 173.422 556.632 171.798C555.81 170.155 553.345 170.155 550.059 167.69C546.773 165.226 538.57 167.279 538.569 167.28C537.335 164.685 536.477 161.928 536.021 159.092C539.522 154.949 541.439 149.699 541.432 144.276C541.432 144.217 541.428 144.159 541.428 144.1C541.637 144.425 541.846 144.753 542.056 145.09C543.594 135.871 546.311 128.208 541.133 119.798C537.463 113.838 531.718 109.446 525.003 107.467L520.071 111.412L521.989 106.811C520.376 106.565 518.744 106.47 517.114 106.529L512.677 112.234L514.514 106.724C510.663 107.203 506.954 108.474 503.619 110.457C500.285 112.441 497.397 115.094 495.139 118.249C489.491 126.392 489.87 137.712 495.424 145.919C495.443 145.861 495.457 145.805 495.476 145.748C495.721 149.587 496.926 153.303 498.979 156.557C501.033 159.81 503.869 162.496 507.23 164.369L508.625 175.531C507.369 176.697 505.758 177.408 504.051 177.55C501.586 177.55 499.121 184.122 499.121 184.122C499.121 184.122 497.724 184.827 496.219 188.155C492.34 190.795 480.51 199.089 476.121 204.885C473.524 206.163 470.735 209.005 471.188 215.342C472.009 226.844 471.188 280.247 471.188 280.247C471.188 280.247 463.793 325.433 466.258 328.72C468.723 332.006 465.437 342.687 465.437 342.687L467.901 343.234V345.973C467.901 345.973 460.488 380.339 472.009 378.836C490.905 376.371 476.939 348.438 476.939 348.438V345.243L480.225 345.973C480.225 345.973 481.868 334.471 485.154 333.649C486.297 333.363 487.639 330.292 488.903 326.411C489.64 332.466 490.084 336.114 490.084 336.114L495.225 334.972L496.656 340.222C497.01 340.42 497.379 340.587 497.761 340.722L496.656 346.795C496.656 346.795 495.835 353.367 496.656 357.475C497.071 359.547 512.321 403.828 527.338 447.219L527.055 457.707C527.055 457.707 519.661 465.923 521.304 471.674C522.947 477.425 517.196 525.077 517.196 525.077L512.266 548.903L513.507 549.284L512.368 553.459C511.388 553.954 510.515 554.64 509.802 555.475C503.229 562.869 495.013 584.23 495.013 584.23C495.013 584.23 480.225 606.413 503.229 605.591C526.233 604.77 527.876 596.554 527.876 596.554C527.876 596.554 531.163 575.193 531.163 574.371C531.163 573.55 529.52 565.104 529.52 565.104L528.882 564.401L529.327 554.152L533.628 555.475C533.628 555.475 537.735 534.114 541.022 531.649C542.17 530.788 545.226 521.192 548.715 508.867C552.281 519.135 555.734 554.64 556.855 557.863C556.458 558.405 556.108 558.981 555.81 559.583C552.117 566.67 548.002 573.529 543.486 580.123C543.486 580.123 517.196 595.733 543.486 599.84C543.486 599.84 558.275 600.662 565.669 595.732C573.063 590.803 592.781 583.409 592.781 581.766C592.781 580.123 587.852 555.968 582.922 558.597L579.62 551.002L582.922 549.724L562.122 456.36C562.614 454.37 562.975 452.35 563.204 450.313C563.204 446.011 573.842 362.236 576.549 340.987C588.464 344.363 599.354 319.682 599.354 319.682L602.055 314.821L605.926 317.218C605.926 317.218 609.213 309.002 614.142 308.18C619.072 307.359 628.109 263.815 628.109 258.064C628.034 254.372 627.194 250.735 625.644 247.383V247.383ZM587.365 311.753C586.557 310.469 585.619 309.272 584.565 308.18C586.713 302.586 588.363 296.812 589.495 290.927C591.138 281.89 587.03 252.313 587.03 252.313L586.958 250.304C590.99 255.598 596.067 262.655 596.067 264.637C596.067 265.593 596.29 266.537 596.718 267.392C597.146 268.248 597.767 268.992 598.532 269.566L593.603 286.819C593.603 286.819 590.316 295.035 589.495 299.143C589.002 301.578 588.727 304.053 588.673 306.537L589.838 307.258L587.365 311.753Z" fill="#D0CDE1"/>
<path d="M249.523 262.59L253.907 261.604L235.832 210.666L196.807 196.288C196.807 196.288 196.658 196.454 196.382 196.74C193.053 193.518 191.64 188.844 191.05 185.164C194.188 183.897 197.008 181.952 199.308 179.469C201.608 176.986 203.332 174.025 204.356 170.799C205.38 167.573 205.679 164.161 205.233 160.806C204.786 157.451 203.604 154.236 201.772 151.39C204.987 150.618 206.135 147.701 207.215 144.222C206.547 144.025 205.865 143.877 205.175 143.778C205.681 142.644 206.187 141.51 206.692 140.376C205.804 140.296 204.915 140.217 204.026 140.137C204.253 139.077 204.481 138.017 204.708 136.957C203.574 137.739 202.441 138.521 201.308 139.304C201.692 138.191 201.788 136.998 201.586 135.838C201.383 134.678 200.889 133.589 200.15 132.672C198.645 130.853 196.681 129.469 194.463 128.662C190.124 126.955 185.398 126.477 180.805 127.28C176.212 128.082 171.929 130.135 168.426 133.213L168.181 132.255C161.245 137.587 156.706 145.453 155.56 154.126C154.472 162.699 158.591 171.429 163.944 178.214C163.899 177.918 163.851 177.622 163.801 177.327C164.033 177.646 164.272 177.959 164.518 178.265L165.176 203.272L163.528 204.685C163.526 204.686 135.876 217.195 134.798 232.137L134.795 232.148C133.135 239.421 132.313 277.214 132.313 277.214H134.588L132.313 292.002L117.525 349.513C117.525 349.513 98.6286 374.16 115.06 379.089C125.271 382.153 128.184 370.306 128.927 360.896C129.518 363.229 131.288 364.805 134.778 365.123C135.053 365.148 135.346 365.168 135.63 365.191C127.86 385.27 133.135 450.567 133.135 450.567C129.027 458.783 177.5 515.471 177.5 515.471L180.419 513.915L181.05 515.178C179.426 515.334 178.322 515.471 178.322 515.471V540.94C178.322 540.94 170.927 566.409 180.786 571.339C183.337 572.614 185.998 571.686 188.542 569.614C188.056 577.474 187.359 589.203 187.359 591.878C187.359 595.986 198.039 603.38 198.039 603.38C198.039 603.38 200.504 612.417 220.222 612.417C239.94 612.417 225.152 588.592 225.152 588.592L214.471 564.766C214.471 564.766 213.672 565.157 211.254 563.188L212.12 553.66L216.936 554.085L223.508 457.961C223.508 457.961 229.259 372.517 230.081 359.372C230.274 355.157 230.174 350.934 229.784 346.734L253.907 296.932L249.523 262.59ZM231.724 294.467L229.259 303.056V284.06L231.724 294.467ZM129.156 355.394C129.176 352.383 129.027 350.334 129.027 350.334L145.089 318.211L144.637 328.152C144.637 328.152 131.773 344.423 129.156 355.394ZM166.82 448.102L182.43 393.056L191.467 459.604L190.819 483.797C189.718 481.574 188.835 479.25 188.181 476.857C185.716 466.998 166.82 448.102 166.82 448.102Z" fill="#D0CDE1"/>
<path d="M389.149 578.861C381.451 575.692 366.508 568.899 364.697 565.277C362.886 561.654 353.829 533.58 353.829 533.58L351.497 533.749C351.196 520.995 349.912 471.566 347.943 465.657C347.943 465.657 357.452 387.32 338.433 356.076L335.007 342.232C336.131 336.683 335.987 323.832 335.264 321.662C334.358 318.945 345.679 310.341 342.509 304.907C339.339 299.474 330.736 280.908 330.736 280.908C330.736 280.908 331.641 269.135 319.415 258.267C319.415 258.267 315.842 238.04 299.743 237.739C297.566 233.941 294.52 227.901 295.416 225.212C296.376 222.333 300.046 213.356 302.118 208.332C303.219 207.835 304.276 207.246 305.279 206.573C318.084 200.836 327.11 187.045 327.11 170.934C327.11 153.687 316.77 139.092 302.52 134.198C303.155 132.525 303.414 130.733 303.281 128.948C303.147 127.164 302.623 125.431 301.745 123.872C300.868 122.312 299.659 120.964 298.204 119.923C296.748 118.883 295.082 118.174 293.323 117.848C291.564 117.521 289.754 117.585 288.022 118.035C286.291 118.485 284.679 119.31 283.301 120.451C281.922 121.592 280.812 123.022 280.047 124.64C279.282 126.257 278.882 128.023 278.874 129.812C278.091 127.955 277.779 125.932 277.968 123.925C278.156 121.918 278.839 119.988 279.954 118.309C281.07 116.63 282.584 115.253 284.362 114.302C286.139 113.35 288.124 112.854 290.14 112.857C290.934 112.858 291.725 112.936 292.504 113.09C289.819 111.813 286.761 111.559 283.903 112.375C281.045 113.192 278.582 115.022 276.977 117.524C275.372 120.026 274.734 123.028 275.183 125.966C275.632 128.905 277.137 131.579 279.417 133.487C279.557 133.934 279.724 134.373 279.916 134.801C266.507 140.211 256.942 154.347 256.942 170.934C256.942 186.32 265.174 199.592 277.068 205.753C277.004 210.758 275.763 219.196 268.861 224.338C265.295 222.709 260.347 220.921 257.172 221.732C255.53 220.452 253.053 220.029 249.681 223.401C242.889 230.193 237.003 247.853 237.003 258.72C237.003 269.588 238.361 332.529 238.361 332.529C238.361 332.529 231.116 335.246 236.097 339.321C237.126 340.178 238.417 340.658 239.755 340.681L244.701 377.358C244.701 377.358 241.531 412.678 253.757 413.131C254.716 413.183 255.668 412.949 256.494 412.459L247.417 453.431C247.417 453.431 226.588 467.016 210.287 493.732C201.89 507.492 197.704 515.958 195.613 520.941L192.627 519.09L182.212 539.013C182.212 539.013 159.118 553.051 164.099 563.466C169.08 573.88 173.608 576.597 173.608 576.597L176.778 575.239L182.665 586.106C182.665 586.106 198.06 608.294 222.965 596.974C224.134 595.403 224.765 593.498 224.765 591.54C224.765 589.582 224.134 587.677 222.965 586.106C218.89 580.22 208.475 567.541 208.475 567.541L215.267 533.127L213.862 532.255L256.927 480.147C256.927 480.147 269.605 472.45 274.134 465.657C278.662 458.865 306.736 388.678 306.736 388.678L322.585 462.035C322.585 462.035 321.679 488.751 325.755 505.958C327.976 515.61 329.425 525.424 330.087 535.306L328.924 535.391L331.641 555.768C331.641 555.768 319.868 584.748 328.019 587.012C333.818 588.51 339.721 589.57 345.679 590.182L346.584 587.012C346.584 587.012 381.451 606.03 394.13 591.993C394.13 591.993 396.847 582.031 389.149 578.861ZM265.077 356.528C266.436 357.887 265.983 364.226 265.983 364.226L263.266 381.886L260.552 394.135C260.177 388.348 259.42 382.592 258.285 376.905L257.031 343.062C257.278 343.218 257.548 343.331 257.832 343.397C258.738 343.397 258.285 335.699 258.285 335.699C258.285 335.699 258.813 334.324 259.473 332.155C261.233 337.425 263.382 340.863 265.983 341.586L266.436 347.472C266.436 347.472 260.549 350.189 265.983 350.189C266.298 350.177 266.611 350.131 266.916 350.05L266.436 352.453C266.436 352.453 263.719 355.17 265.077 356.528Z" fill="#D0CDE1"/>
<path d="M381.409 599.955C582.441 599.955 745.409 597.269 745.409 593.955C745.409 590.642 582.441 587.955 381.409 587.955C180.378 587.955 17.4092 590.642 17.4092 593.955C17.4092 597.269 180.378 599.955 381.409 599.955Z" fill="#7F5AF0"/>
<path d="M508.807 624.955C729.941 624.955 909.205 618.016 909.205 609.455C909.205 600.895 729.941 593.955 508.807 593.955C287.673 593.955 108.409 600.895 108.409 609.455C108.409 618.016 287.673 624.955 508.807 624.955Z" fill="#7F5AF0"/>
<path d="M434.909 647.955C543.433 647.955 631.409 641.016 631.409 632.455C631.409 623.895 543.433 616.955 434.909 616.955C326.385 616.955 238.409 623.895 238.409 632.455C238.409 641.016 326.385 647.955 434.909 647.955Z" fill="#7F5AF0"/>
<path d="M718.909 658.955C767.234 658.955 806.409 655.374 806.409 650.955C806.409 646.537 767.234 642.955 718.909 642.955C670.584 642.955 631.409 646.537 631.409 650.955C631.409 655.374 670.584 658.955 718.909 658.955Z" fill="#7F5AF0"/>
<path d="M598.909 685.955C621.829 685.955 640.409 682.374 640.409 677.955C640.409 673.537 621.829 669.955 598.909 669.955C575.989 669.955 557.409 673.537 557.409 677.955C557.409 682.374 575.989 685.955 598.909 685.955Z" fill="#7F5AF0"/>
<path d="M260.909 651.955C283.829 651.955 302.409 648.374 302.409 643.955C302.409 639.537 283.829 635.955 260.909 635.955C237.989 635.955 219.409 639.537 219.409 643.955C219.409 648.374 237.989 651.955 260.909 651.955Z" fill="#7F5AF0"/>
<path d="M465.909 553.455L469.909 581.455L489.909 579.455L487.909 550.455L465.909 553.455Z" fill="#FFB8B8"/>
<path d="M370.909 553.455L366.909 581.455L346.909 579.455L348.909 550.455L370.909 553.455Z" fill="#FFB8B8"/>
<path d="M341.909 263.455C341.909 263.455 323.909 284.455 327.909 317.455C331.909 350.455 338.909 425.455 338.909 425.455L343.909 558.455L375.909 556.455L380.909 443.455L396.909 352.455L439.909 458.455C439.909 458.455 460.909 557.455 461.909 557.455C462.909 557.455 491.909 554.455 491.909 554.455L477.909 437.455C477.909 437.455 455.909 267.455 442.909 264.455C429.909 261.455 341.909 263.455 341.909 263.455Z" fill="#2F2E41"/>
<path d="M491.909 575.455C491.909 575.455 473.909 563.455 466.909 577.455C459.909 591.455 465.909 601.455 465.909 601.455C465.909 601.455 471.909 605.455 468.909 609.455C465.909 613.455 464.909 639.455 490.909 635.455C516.909 631.455 503.909 604.455 503.909 604.455L491.909 575.455Z" fill="#2F2E41"/>
<path d="M344.909 575.455C344.909 575.455 362.909 563.455 369.909 577.455C376.909 591.455 370.909 601.455 370.909 601.455C370.909 601.455 364.909 605.455 367.909 609.455C370.909 613.455 371.909 639.455 345.909 635.455C319.909 631.455 332.909 604.455 332.909 604.455L344.909 575.455Z" fill="#2F2E41"/>
<path d="M366.409 68.9554C366.409 68.9554 375.409 93.9554 368.409 107.955C361.409 121.955 379.409 137.955 379.409 137.955C379.409 137.955 426.409 113.955 420.409 101.955C414.409 89.9554 404.409 73.9554 406.409 63.9554L366.409 68.9554Z" fill="#FFB8B8"/>
<path d="M383.909 78.4554C401.582 78.4554 415.909 64.1285 415.909 46.4554C415.909 28.7823 401.582 14.4554 383.909 14.4554C366.236 14.4554 351.909 28.7823 351.909 46.4554C351.909 64.1285 366.236 78.4554 383.909 78.4554Z" fill="#FFB8B8"/>
<path d="M360.909 106.455C360.909 106.455 393.017 133.174 416.963 95.3146L441.909 109.455L454.909 261.455C454.909 261.455 381.909 303.455 346.909 267.455L351.909 126.455L360.909 106.455Z" fill="#D0CDE1"/>
<path d="M370.992 91.488L325.909 121.455L341.909 195.455L320.909 310.455L354.909 259.455L370.992 91.488Z" fill="#7F5AF0"/>
<path d="M410.836 83.1469L421.909 90.4554L466.909 106.455L459.909 230.455L478.909 310.455L451.909 324.455C451.909 324.455 446.909 286.455 415.909 267.455C384.909 248.455 403.763 88.8385 410.836 83.1469Z" fill="#7F5AF0"/>
<path d="M335.909 277.455L348.909 286.455C348.909 286.455 332.409 303.955 329.409 300.955C328.541 300.122 327.867 299.107 327.435 297.984C327.003 296.861 326.823 295.656 326.909 294.455L323.909 287.455L335.909 277.455Z" fill="#FFB8B8"/>
<path d="M422.329 275.51L417.909 282.455C417.909 282.455 404.909 288.455 407.909 292.455C410.909 296.455 435.909 305.455 440.909 296.455L445.909 287.455L422.329 275.51Z" fill="#FFB8B8"/>
<path d="M331.909 120.455L324.909 121.455L313.409 195.955C313.409 195.955 308.909 209.455 313.909 241.455C318.909 273.455 323.86 294.293 323.86 294.293L345.909 278.455L335.909 252.455L348.909 157.455L331.909 120.455Z" fill="#575A89"/>
<path d="M450.909 104.455L466.909 106.455C466.909 106.455 484.909 125.455 487.909 145.455C490.909 165.455 489.909 222.455 489.909 222.455L443.909 295.455L418.909 277.455L453.909 215.455L436.909 141.455L450.909 104.455Z" fill="#575A89"/>
<path d="M414.424 17.5131C409.586 9.65521 402.011 3.86477 393.159 1.25628L386.657 6.45758L389.185 0.390847C387.06 0.0665637 384.908 -0.0577789 382.759 0.0194482L376.909 7.5407L379.331 0.277078C374.254 0.907887 369.364 2.58362 364.968 5.19859C360.572 7.81356 356.765 11.311 353.788 15.4705C346.343 26.2061 345.086 41.1359 352.409 51.9554C354.419 45.7778 356.859 39.9812 358.869 33.8035C360.449 34.0189 362.051 34.0267 363.632 33.8267L366.078 28.1201L366.761 33.5853C374.342 32.9248 385.585 31.475 392.772 30.1464L392.073 25.9538L396.254 29.4379C398.456 28.931 399.763 28.4714 399.655 28.1201C405 36.7365 410.296 42.24 415.64 50.8563C417.669 38.7026 421.251 28.6001 414.424 17.5131Z" fill="#2F2E41"/>
<path d="M412.653 49.7826C413.849 49.7826 414.819 47.8428 414.819 45.4501C414.819 43.0573 413.849 41.1176 412.653 41.1176C411.456 41.1176 410.486 43.0573 410.486 45.4501C410.486 47.8428 411.456 49.7826 412.653 49.7826Z" fill="#FFB8B8"/>
<path d="M959.194 51.187C959.223 51.0958 959.253 51.0035 959.282 50.912C959.27 50.9521 959.254 50.9907 959.242 51.0309L959.194 51.187Z" fill="#2F2E41"/>
</g>
<defs>
<clipPath id="clip0">
<rect width="959.282" height="685.955" fill="white"/>
</clipPath>
</defs>
</svg>
