<svg width="767" height="501" viewBox="0 0 767 501" fill="none" xmlns="http://www.w3.org/2000/svg">
<g clip-path="url(#clip0)">
<path d="M304 439C482.94 439 628 436.538 628 433.5C628 430.462 482.94 428 304 428C125.06 428 -20 430.462 -20 433.5C-20 436.538 125.06 439 304 439Z" fill="#7F5AF0"/>
<path d="M417.5 461C614.39 461 774 454.732 774 447C774 439.268 614.39 433 417.5 433C220.61 433 61 439.268 61 447C61 454.732 220.61 461 417.5 461Z" fill="#7F5AF0"/>
<path d="M352 481C448.65 481 527 474.956 527 467.5C527 460.044 448.65 454 352 454C255.35 454 177 460.044 177 467.5C177 474.956 255.35 481 352 481Z" fill="#7F5AF0"/>
<path d="M604.5 491C647.302 491 682 487.866 682 484C682 480.134 647.302 477 604.5 477C561.698 477 527 480.134 527 484C527 487.866 561.698 491 604.5 491Z" fill="#7F5AF0"/>
<path d="M197 485C217.435 485 234 481.866 234 478C234 474.134 217.435 471 197 471C176.565 471 160 474.134 160 478C160 481.866 176.565 485 197 485Z" fill="#7F5AF0"/>
<path d="M385.574 445.1H400.13L407.055 388.955L385.572 388.956L385.574 445.1Z" fill="#FFB7B7"/>
<path d="M381.861 440.348L410.528 440.347H410.529C415.374 440.347 420.02 442.272 423.446 445.697C426.872 449.123 428.797 453.77 428.797 458.615V459.208L381.862 459.21L381.861 440.348Z" fill="#2F2E41"/>
<path d="M306.763 445.1H321.319L328.243 388.955L306.76 388.956L306.763 445.1Z" fill="#FFB7B7"/>
<path d="M303.05 440.348L331.716 440.347H331.717C336.562 440.347 341.209 442.272 344.634 445.697C348.06 449.123 349.985 453.77 349.985 458.615V459.208L303.051 459.21L303.05 440.348Z" fill="#2F2E41"/>
<path d="M300.832 190.638V338.879L304.585 434.579H335.547L345.867 254.438L366.508 328.559L379.644 432.702L417.173 430.826L391.841 190.638H300.832Z" fill="#2F2E41"/>
<path d="M336.824 57.4087C349.26 57.4087 359.342 47.3272 359.342 34.8911C359.342 22.455 349.26 12.3735 336.824 12.3735C324.388 12.3735 314.307 22.455 314.307 34.8911C314.307 47.3272 324.388 57.4087 336.824 57.4087Z" fill="#FFB8B8"/>
<path d="M327.468 63.275L321.473 69.606L315.844 196.268L382.458 194.391L366.508 83.68L352.435 70.193L345.294 63.275H327.468Z" fill="#6C63FF"/>
<path d="M316.782 77.1116L321.839 68.9048L323.35 86.4939C323.35 86.4939 335.547 125.9 334.609 160.614C333.671 195.329 339.3 276.955 331.794 277.894C324.288 278.832 292.388 280.708 292.388 274.141C292.388 267.573 290.512 93.0615 290.512 93.0615L316.782 77.1116Z" fill="#3F3D56"/>
<path d="M350.924 68.9048L363.694 78.988L391.841 89.3086C391.841 89.3086 391.841 209.403 397.47 237.549C403.099 265.696 413.42 268.511 400.285 269.449C387.149 270.388 388.088 265.697 388.088 265.697C388.088 265.697 397.47 218.785 385.273 209.402C373.076 200.02 349.62 145.603 351.497 115.579C353.373 85.5557 349.047 68.9048 350.924 68.9048Z" fill="#3F3D56"/>
<path d="M315.521 41.9361C315.521 41.9361 317.435 38.5762 316.99 27.3522C316.545 16.1281 333.637 22.4763 347.918 21.4056C362.2 20.3348 359.177 40.1445 359.177 40.1445C359.177 40.1445 360.207 38.9669 362.413 29.4062C364.619 19.8455 359.61 10.3179 359.61 10.3179C358.135 0.27139 350.185 3.49131 350.185 3.49131C354.014 4.98175 353.279 8.16864 353.279 8.16864C350.038 2.48664 342.088 5.70658 342.088 5.70658C331.485 -0.947042 320.739 7.81495 320.739 7.81495C307.93 10.7219 315.442 20.9084 315.442 20.9084C302.56 27.4181 315.521 41.9361 315.521 41.9361Z" fill="#2F2E41"/>
<path d="M292.419 260.574C293.373 259.565 294.095 258.36 294.533 257.042C294.971 255.724 295.115 254.327 294.954 252.947C294.794 251.568 294.333 250.241 293.604 249.059C292.875 247.877 291.895 246.869 290.735 246.107L294.791 224.783L282.434 219.158L277.129 249.351C275.977 251.386 275.612 253.772 276.102 256.058C276.592 258.344 277.904 260.371 279.789 261.754C281.674 263.138 284 263.782 286.328 263.564C288.656 263.347 290.823 262.283 292.419 260.574V260.574Z" fill="#FFB7B7"/>
<path d="M295.202 93.0616L292.711 91.7259C292.711 91.7259 279.252 96.8145 280.19 100.567C281.128 104.32 272.684 235.673 275.499 240.364C278.314 245.055 300.831 241.302 300.831 241.302L295.202 93.0616Z" fill="#3F3D56"/>
<path d="M402.31 251.731C401.225 250.864 400.344 249.77 399.727 248.525C399.111 247.281 398.776 245.916 398.744 244.528C398.712 243.14 398.985 241.761 399.543 240.49C400.102 239.219 400.932 238.085 401.976 237.169L395.009 216.612L406.469 209.331L415.901 238.5C417.323 240.356 418.015 242.669 417.845 245.001C417.676 247.332 416.657 249.521 414.982 251.152C413.307 252.783 411.091 253.742 408.756 253.849C406.42 253.956 404.127 253.202 402.31 251.731V251.731Z" fill="#FFB7B7"/>
<path d="M391.312 233.808C391.312 233.808 414.132 234.41 416.27 229.374C418.409 224.339 391.872 95.4177 392.282 91.571C392.692 87.7244 378.658 84.5469 378.658 84.5469L376.376 86.2144L391.312 233.808Z" fill="#3F3D56"/>
<path d="M492.171 239.609L478.043 170.38L471.836 119.247L458.087 128.142L459.986 184.49L481.932 242.873C481.227 244.216 480.937 245.739 481.099 247.247C481.262 248.756 481.869 250.182 482.844 251.345C483.819 252.507 485.118 253.353 486.575 253.776C488.032 254.198 489.582 254.178 491.028 253.717C492.473 253.256 493.749 252.376 494.693 251.188C495.638 250 496.207 248.559 496.33 247.046C496.452 245.534 496.122 244.02 495.382 242.695C494.641 241.371 493.524 240.297 492.171 239.609H492.171Z" fill="#FFB7B7"/>
<path d="M360.031 244.962L363.942 174.414L362.647 122.923L380.824 129.724L383.859 185.749L370.636 246.702C371.529 247.928 372.038 249.393 372.096 250.909C372.155 252.425 371.762 253.924 370.966 255.216C370.17 256.508 369.008 257.534 367.628 258.164C366.248 258.794 364.711 258.999 363.214 258.754C361.717 258.508 360.326 257.823 359.22 256.785C358.113 255.747 357.34 254.403 356.999 252.925C356.657 251.447 356.764 249.9 357.304 248.482C357.844 247.064 358.793 245.839 360.031 244.962V244.962Z" fill="#FFB7B7"/>
<path d="M398.101 450.07H407.389L411.808 414.244L398.1 414.245L398.101 450.07Z" fill="#FFB7B7"/>
<path d="M395.731 447.038L414.023 447.037H414.024C417.115 447.037 420.08 448.265 422.266 450.451C424.452 452.637 425.68 455.602 425.681 458.694V459.072L395.732 459.073L395.731 447.038Z" fill="#2F2E41"/>
<path d="M433.281 445.96L442.46 447.38L452.305 412.651L438.757 410.556L433.281 445.96Z" fill="#FFB7B7"/>
<path d="M431.403 442.601L449.48 445.397L449.481 445.397C452.536 445.87 455.278 447.537 457.104 450.032C458.93 452.526 459.69 455.644 459.218 458.699L459.16 459.073L429.563 454.495L431.403 442.601Z" fill="#2F2E41"/>
<path d="M395.373 439.374L395.325 439.114L361.701 257.318C359.031 242.723 361.16 227.657 367.769 214.373L388.121 173.671L448.847 181.898L456.014 233.719L481.554 332.575L481.529 332.655L448.807 436.596L427.361 438.007L446.358 345.225L411.574 266.219L414.027 437.96L395.373 439.374Z" fill="#2F2E41"/>
<path d="M450.261 188.53L449.86 187.902C449.788 187.788 442.412 176.675 422.339 184.095C401.847 191.672 385.97 177.039 385.812 176.89L385.733 176.816L381.093 135.454L375.614 101.876L393.053 98.8166L401.626 93.6728L435.719 93.0658L444.69 100.122L459.42 101.727L460.768 132.323L460.762 132.356L450.261 188.53Z" fill="#6C63FF"/>
<path d="M455.146 135.282V109.084L459.288 101.525L459.457 101.52C462.718 101.641 465.799 103.041 468.036 105.417C472.202 109.65 474.089 116.703 473.645 126.379L473.637 126.556L455.146 135.282Z" fill="#6C63FF"/>
<path d="M382.953 132.434L361.842 129.901L361.825 129.658C361.105 119.13 362.942 111.316 367.287 106.431C369.467 103.819 372.56 102.135 375.937 101.721L376.059 101.715L381.774 106.911L382.953 132.434Z" fill="#6C63FF"/>
<path d="M444.064 82.5096H388.512C387.369 82.5083 386.274 82.0538 385.466 81.2458C384.658 80.4378 384.203 79.3422 384.202 78.1995V58.086C384.195 53.8678 385.02 49.6897 386.629 45.7907C388.238 41.8916 390.601 38.3482 393.581 35.363C396.561 32.3779 400.101 30.0096 403.997 28.3938C407.893 26.7779 412.07 25.9462 416.288 25.9462C420.506 25.9462 424.683 26.7779 428.579 28.3938C432.476 30.0096 436.015 32.3779 438.995 35.363C441.976 38.3482 444.338 41.8916 445.947 45.7907C447.556 49.6897 448.381 53.8678 448.374 58.086V78.1995C448.373 79.3423 447.918 80.4378 447.11 81.2458C446.302 82.0538 445.207 82.5083 444.064 82.5096V82.5096Z" fill="#2F2E41"/>
<path d="M417.578 82.3116C430.57 82.3116 441.102 71.7794 441.102 58.7873C441.102 45.7952 430.57 35.263 417.578 35.263C404.586 35.263 394.054 45.7952 394.054 58.7873C394.054 71.7794 404.586 82.3116 417.578 82.3116Z" fill="#FFB7B7"/>
<path d="M439.938 59.5227H408.88C408.297 59.5219 407.734 59.3084 407.296 58.9222C406.859 58.536 406.577 58.0036 406.504 57.4246L406.102 54.208C406.064 53.8987 405.925 53.6104 405.709 53.3865C405.492 53.1626 405.208 53.0153 404.9 52.9668C404.592 52.9183 404.277 52.9713 404.002 53.1178C403.727 53.2642 403.507 53.4962 403.375 53.7787L401.339 58.1411C401.145 58.5533 400.838 58.9019 400.454 59.1465C400.07 59.3911 399.624 59.5215 399.169 59.5226H394.451C394.118 59.5227 393.788 59.453 393.482 59.318C393.177 59.183 392.903 58.9857 392.679 58.7388C392.455 58.4918 392.284 58.2007 392.179 57.884C392.074 57.5673 392.036 57.2321 392.068 56.8999L393.928 37.4701C393.968 37.0544 394.115 36.6561 394.355 36.3143C394.594 35.9725 394.919 35.6987 395.296 35.5199C409.52 28.8799 423.943 28.8883 438.167 35.5451C438.528 35.7147 438.84 35.9716 439.077 36.2925C439.314 36.6134 439.466 36.9883 439.522 37.3831L442.308 56.7877C442.357 57.1275 442.332 57.4738 442.236 57.8031C442.139 58.1325 441.973 58.4372 441.748 58.6966C441.523 58.956 441.245 59.164 440.933 59.3065C440.621 59.4491 440.281 59.5228 439.938 59.5227H439.938Z" fill="#2F2E41"/>
<path d="M452.717 241.809C453.901 241.39 454.979 240.717 455.875 239.836C456.77 238.955 457.462 237.889 457.901 236.712C458.34 235.535 458.515 234.276 458.415 233.024C458.315 231.772 457.941 230.557 457.321 229.465L477.456 206.512L461.738 204.343L445.027 226.473C443.261 227.637 441.984 229.408 441.437 231.451C440.891 233.494 441.112 235.666 442.06 237.557C443.008 239.447 444.616 240.924 446.581 241.708C448.545 242.492 450.728 242.528 452.717 241.809V241.809Z" fill="#9F616A"/>
<path d="M477 445.234L462.957 445.233L456.276 391.067L477.003 391.068L477 445.234Z" fill="#9F616A"/>
<path d="M480.581 458.847L435.301 458.845V458.272C435.301 453.598 437.158 449.115 440.463 445.81C443.768 442.505 448.251 440.648 452.925 440.648H452.926L480.582 440.649L480.581 458.847Z" fill="#2F2E41"/>
<path d="M550.511 433.482L537.099 437.646L514.656 387.897L534.451 381.752L550.511 433.482Z" fill="#9F616A"/>
<path d="M557.968 445.42L514.723 458.847L514.553 458.3C513.167 453.836 513.612 449.004 515.788 444.867C517.964 440.731 521.695 437.628 526.159 436.242L526.16 436.241L552.572 428.041L557.968 445.42Z" fill="#2F2E41"/>
<path d="M466.246 195.506L445.448 219.325L461.731 220.79L466.246 195.506Z" fill="#E6E6E6"/>
<path d="M458.119 226.208C458.119 226.208 450.895 229.82 449.992 246.075C449.088 262.33 452.701 304.775 452.701 304.775C452.701 304.775 449.089 323.738 452.701 340.895C456.313 358.052 449.089 420.358 453.604 420.358C458.119 420.358 481.597 423.067 482.5 420.358C483.404 417.648 484.307 377.013 484.307 377.013C484.307 377.013 491.531 356.243 484.307 343.605C484.307 343.605 509.53 387.649 525.845 421.264C529.416 428.62 556.548 420.36 552.033 412.233C547.518 404.106 536.682 367.082 536.682 367.082C536.682 367.082 528.555 339.991 514.107 328.252L521.331 270.459C521.331 270.459 536.683 231.629 527.654 226.211C518.625 220.793 458.119 226.208 458.119 226.208Z" fill="#2F2E41"/>
<path d="M485.21 79.0153C498.176 79.0153 508.688 68.5037 508.688 55.537C508.688 42.5704 498.176 32.0588 485.21 32.0588C472.243 32.0588 461.731 42.5704 461.731 55.537C461.731 68.5037 472.243 79.0153 485.21 79.0153Z" fill="#A0616A"/>
<path d="M511.397 80.8215L482.209 97.9786C482.209 97.9786 471.033 104.272 466.858 115.136C462.408 126.713 464.995 143.014 466.858 146.741C470.47 153.966 465.343 172.026 465.343 172.026L460.828 213.564C460.828 213.564 444.574 228.915 457.217 230.721C469.859 232.528 492.434 229.818 505.979 230.721C519.525 231.625 534.876 233.431 530.361 224.399C525.846 215.366 520.428 209.047 525.846 190.99C530.086 176.858 529.902 124.017 529.622 101.701C529.583 98.6369 528.761 95.6332 527.234 92.9761C525.707 90.3189 523.525 88.0966 520.897 86.5206L511.397 80.8215Z" fill="#E5E5E5"/>
<path opacity="0.1" d="M498.307 109.267L501.016 164.351L474.762 217.517L470.31 215.823L497.4 166.157L498.307 109.267Z" fill="black"/>
<path opacity="0.1" d="M528.103 176.09V169.767L497.404 220.337L528.103 176.09Z" fill="black"/>
<path d="M468.546 33.7873L464.668 32.2357C464.668 32.2357 472.785 23.3008 484.075 24.0775L480.899 20.5811C480.899 20.5811 488.662 17.4736 495.719 25.6309C499.429 29.9193 503.721 34.9605 506.4 40.6382H510.556L508.822 44.4584L514.894 48.2786L508.661 47.595C509.252 50.893 509.05 54.2841 508.072 57.4886L508.243 60.5082C508.243 60.5082 501.015 49.3244 501.015 47.7728V51.6579C501.015 51.6579 497.133 48.1615 497.133 45.8306L495.016 48.5503L493.957 44.2781L480.902 48.5503L483.017 45.0522L474.9 46.2177L478.076 41.9455C478.076 41.9455 468.902 46.9952 468.549 51.2691C468.196 55.543 463.609 60.9806 463.609 60.9806L461.492 57.0955C461.492 57.0955 458.317 39.6146 468.546 33.7873Z" fill="#2F2E41"/>
<path d="M483.736 244.365C484.827 243.742 485.768 242.888 486.493 241.862C487.218 240.836 487.709 239.664 487.932 238.428C488.155 237.192 488.105 235.922 487.784 234.707C487.463 233.493 486.88 232.364 486.075 231.399L501.816 205.236L485.963 205.892L473.445 230.636C471.915 232.095 470.972 234.065 470.796 236.173C470.621 238.28 471.224 240.379 472.493 242.071C473.761 243.763 475.606 244.931 477.679 245.354C479.751 245.777 481.906 245.425 483.736 244.365V244.365Z" fill="#9F616A"/>
<path d="M519.526 92.5623L526.298 91.2081C526.298 91.2081 546.616 106.108 540.295 135.907C533.973 165.706 505.98 210.857 505.98 210.857C505.98 210.857 499.657 218.985 497.853 220.79C496.048 222.596 492.435 220.79 494.241 223.5C496.048 226.209 491.532 228.015 491.532 228.015C491.532 228.015 471.665 228.015 473.472 220.79C475.278 213.566 505.98 162.09 505.98 162.09L501.466 114.231C501.466 114.231 497.852 90.7561 519.526 92.5623Z" fill="#E5E5E5"/>
<path d="M253.998 111.154C254.205 138.981 236.417 134.773 214.729 134.773C193.041 134.773 177.35 138.918 175.459 111.154C172.454 67.0374 184.047 34 214.729 34C246.467 34 253.67 67.0374 253.998 111.154Z" fill="#2F2E41"/>
<path d="M134.918 52.0492C135.595 53.4505 135.963 54.9866 135.997 56.5493C136.031 58.112 135.73 59.6633 135.114 61.0939C134.499 62.5246 133.584 63.7997 132.434 64.8296C131.284 65.8595 129.928 66.6191 128.46 67.0548L126.548 105L111 93.2962L115.2 59.0571C114.647 56.4868 115.036 53.7986 116.292 51.5018C117.548 49.2051 119.585 47.4594 122.015 46.5956C124.446 45.7318 127.102 45.8098 129.48 46.815C131.858 47.8201 133.793 49.6825 134.918 52.0492V52.0492Z" fill="#A0616A"/>
<path d="M280.184 268.083C281.066 266.768 281.645 265.278 281.881 263.718C282.116 262.159 282.002 260.567 281.547 259.055C281.092 257.544 280.307 256.149 279.247 254.969C278.187 253.79 276.878 252.854 275.412 252.228L278.292 214L260.67 223.702L260.636 258.517C259.734 261.018 259.793 263.759 260.801 266.22C261.809 268.682 263.697 270.693 266.107 271.872C268.516 273.051 271.28 273.316 273.875 272.618C276.469 271.92 278.714 270.306 280.184 268.083H280.184Z" fill="#A0616A"/>
<path d="M200.003 452L212.876 451.999L219 402L200 402.001L200.003 452Z" fill="#A0616A"/>
<path d="M196 448.001L222.262 448H222.263C224.461 448 226.638 448.426 228.668 449.253C230.699 450.08 232.544 451.293 234.098 452.822C235.652 454.351 236.885 456.166 237.726 458.163C238.567 460.161 239 462.301 239 464.463V464.998L196.001 465L196 448.001Z" fill="#2F2E41"/>
<path d="M283.002 452L296.553 451.999L303 402L283 402.001L283.002 452Z" fill="#A0616A"/>
<path d="M280 448.001L305.652 448H305.653C307.799 448 309.925 448.426 311.909 449.253C313.892 450.08 315.694 451.293 317.212 452.822C318.73 454.351 319.934 456.166 320.756 458.163C321.577 460.161 322 462.301 322 464.463V464.998L280.001 465L280 448.001Z" fill="#2F2E41"/>
<path d="M275.838 247L275.271 246.897C270.514 246.034 265.699 245.162 261.466 244.251L261.047 244.16L261.046 243.731C260.973 224.395 260.9 205.062 260.793 185.554C250.683 165.145 246.433 142.326 248.516 119.639L248.54 119.4L248.736 119.259C250.579 117.978 252.729 117.211 254.966 117.038C257.202 116.864 259.444 117.291 261.462 118.274C263.435 119.354 265.122 120.891 266.382 122.757C267.642 124.623 268.438 126.763 268.704 129C272.554 150.01 276.539 171.767 280.984 193.207L281 193.285L280.992 193.365C279.346 210.85 277.643 228.931 275.895 246.425L275.838 247Z" fill="#6C63FF"/>
<path d="M267.374 434L267.269 433.506C261.112 404.446 255.169 380.782 249.421 357.897C242.532 330.471 236.005 304.482 229.415 270.85C230.32 313.262 232.422 343.732 234.838 378.756C235.929 394.57 237.057 410.924 238.202 430.014L238.237 430.597L237.653 430.582C217.054 430.056 195.95 428.786 175.54 427.559L175 427.527L175.037 426.988C178.901 370.158 180.112 333.229 180.996 306.264C182.861 249.375 183.148 240.631 204.386 192.486C205.19 190.659 209.993 185.262 215.274 186.085L257.059 192.573L257.132 192.941C258.311 198.867 264.162 216.849 272.26 241.737C289.573 294.942 315.735 375.345 323.907 423.272L324 423.815L323.454 423.893C311.583 425.576 303.039 427.329 294.777 429.024C286.96 430.629 278.877 432.287 267.874 433.925L267.374 434Z" fill="#2F2E41"/>
<path d="M231.077 207.999C219.903 208 208.859 204.134 200.941 196.607C199.704 195.889 198.657 194.886 197.89 193.681C197.123 192.476 196.657 191.104 196.533 189.682C196.329 188.38 196.415 187.048 196.782 185.782C197.15 184.516 197.791 183.345 198.661 182.352C190.898 172.984 182.884 163.301 175.212 153.441L175 153.169L175.246 152.702C180.265 143.14 185.455 133.253 190.44 123.483C190.787 122.632 191.358 121.889 192.093 121.335C192.827 120.78 193.699 120.433 194.615 120.331C195.411 120.181 196.229 120.194 197.019 120.37C197.81 120.547 198.556 120.882 199.212 121.355L199.222 121.117C199.43 116.172 199.639 111.226 199.853 106.539L199.876 106.038L200.378 106.026C209.962 105.816 219.872 105.597 229.607 105.022L229.977 105L234.805 115.738C242.647 114.979 250.537 116.576 257.461 120.324L257.78 120.493L257.743 120.851C255.801 139.307 256.224 157.933 259 176.282C258.849 184.659 258.687 193.222 256.982 200.048L256.933 200.247L256.762 200.362C249.152 205.397 240.21 208.056 231.077 207.999Z" fill="#6C63FF"/>
<path d="M190.041 161L189.397 160.706C181.874 156.957 174.328 152.798 167.03 148.776L166.021 148.581C146.806 144.749 136.221 142.639 118.886 132.541L118.753 132.463L118.681 132.327C110.001 115.855 107.58 101.457 109.747 79.2033L109.791 78.7569L110.24 78.7214C112.119 78.5698 115.182 78.4684 118.144 78.3701C121.026 78.2749 124.006 78.1756 125.833 78.0335L126.257 78L126.388 78.4015C128.659 85.3695 130.589 91.8703 132.632 98.7526C134.732 105.827 136.902 113.139 139.546 121.264C149.226 124.027 175.176 123.201 183.244 122.11C185.657 121.933 188.077 122.362 190.279 123.357C192.482 124.352 194.398 125.881 195.85 127.803L196 127.989L195.961 128.224C194.185 138.993 192.145 149.825 190.173 160.301L190.041 161Z" fill="#6C63FF"/>
<path d="M237.092 87.8739C244.068 75.112 239.378 59.111 226.616 52.1347C213.854 45.1584 197.853 49.8486 190.877 62.6105C183.901 75.3724 188.591 91.3734 201.353 98.3496C214.114 105.326 230.115 100.636 237.092 87.8739Z" fill="#A0616A"/>
<path d="M184 74H194.396L198.982 61.077L199.9 74H204.868L207.544 66.4615L208.079 74H245C245 66.5739 242.068 59.452 236.85 54.201C231.632 48.95 224.555 46 217.175 46H211.825C204.445 46 197.368 48.95 192.15 54.201C186.932 59.452 184 66.5739 184 74V74Z" fill="#2F2E41"/>
</g>
<defs>
<clipPath id="clip0">
<rect width="766.802" height="500.948" fill="white"/>
</clipPath>
</defs>
</svg>
